<!--?xml version="1.0" encoding="utf-8"?-->
<!-- Generator: Adobe Illustrator 19.1.1, SVG Export Plug-In . SVG Version: 6.00 Build 0)  -->
<svg version="1.1" id="_x31_0" xmlns="http://www.w3.org/2000/svg" xmlns:xlink="http://www.w3.org/1999/xlink" x="0px" y="0px" viewBox="0 0 512 512" style="width: 32px; height: 32px; opacity: 1;" xml:space="preserve">
<style type="text/css">
	.st0{fill:#374149;}
</style>
<g>
	<polygon class="st0" points="267.238,271.766 289.058,271.766 289.058,262.695 267.238,262.695 244.726,262.695 223.167,262.695 
		223.105,262.695 223.105,262.695 222.941,262.695 222.941,271.766 244.726,271.766 	" style="fill: rgb(0, 0, 0);"></polygon>
	<polygon class="st0" points="260.151,297.879 260.151,288.813 244.726,288.813 222.941,288.813 222.941,297.879 244.726,297.879 	
		" style="fill: rgb(0, 0, 0);"></polygon>
	<polygon class="st0" points="260.151,323.996 260.151,314.926 244.726,314.926 222.941,314.926 222.941,323.996 244.726,323.996 	
		" style="fill: rgb(0, 0, 0);"></polygon>
	<path class="st0" d="M340.355,116.68H171.647c-3.199,0-5.613,3.113-4.621,6.152c11.125,33.988,41.164,59.375,77.699,63.73
		c3.684,0.446,7.45,0.691,11.254,0.691c3.805,0,7.57-0.246,11.258-0.691c36.531-4.355,66.609-29.742,77.734-63.73
		C345.968,119.793,343.55,116.68,340.355,116.68z" style="fill: rgb(0, 0, 0);"></path>
	<path class="st0" d="M171.647,70.566h168.707c3.195,0,5.61-3.106,4.614-6.145C332.687,27.004,297.468,0,255.979,0
		c-41.484,0-76.668,27.004-88.945,64.422C166.035,67.461,168.448,70.566,171.647,70.566z" style="fill: rgb(0, 0, 0);"></path>
	<path class="st0" d="M314.46,222.289h-43.195v-20.656l0.015-2.266h-0.015v-0.16l-4.442,0.488c-7.218,0.786-14.5,0.786-21.718,0
		l-3.871-0.426l-0.41-0.058v0.015l-0.16-0.019v23.082h-43.195c-2.586,0-4.684,2.098-4.684,4.684v147.754
		c0,2.586,2.098,4.684,4.684,4.684h43.09h0.106v57.984h-16.551l-8.801,8.394l-14.37,47.559l4.695,14.87
		c0.714,2.25,2.801,3.782,5.164,3.782h90.41c2.359,0,4.449-1.531,5.16-3.782l4.699-14.87l-14.371-47.559l-8.801-8.394h-16.633
		V379.41h43.278c2.586,0,4.679-2.098,4.679-4.684V227.054C319.222,224.434,317.081,222.289,314.46,222.289z M247.671,454.797
		l-2.973,2.137l-10.422,7.426l-7.782,5.398l3.512-15.086h9.781L247.671,454.797z M300.734,358.016h-89.461v-114.25h89.461V358.016z" style="fill: rgb(0, 0, 0);"></path>
</g>
</svg>
